<?xml version="1.0" encoding="utf-8"?>
<!-- Generator: Adobe Illustrator 16.0.3, SVG Export Plug-In . SVG Version: 6.00 Build 0)  -->
<!DOCTYPE svg PUBLIC "-//W3C//DTD SVG 1.1//EN" "http://www.w3.org/Graphics/SVG/1.1/DTD/svg11.dtd">
<svg version="1.1" id="Layer_1" xmlns="http://www.w3.org/2000/svg" xmlns:xlink="http://www.w3.org/1999/xlink" x="0px" y="0px"
	 width="164.934px" height="103.206px" viewBox="0 0 164.934 103.206" enable-background="new 0 0 164.934 103.206"
	 xml:space="preserve">
<g>
	<defs>
		<rect id="SVGID_1_" y="50.264" width="164.934" height="41.471"/>
	</defs>
	<clipPath id="SVGID_2_">
		<use xlink:href="#SVGID_1_"  overflow="visible"/>
	</clipPath>
	<path clip-path="url(#SVGID_2_)" fill="#EF4135" d="M-5.622,80.142h-8.248l-1.985-3.33h-8.431l3.065-5.241h2.461l-3.478-6.327
		c-3.298,5.334-5.704,12.864-12.741,14.707c-5.306,1.649-11.27,0.521-15.172-3.354c-4.096-4.123-5.718-10.309-3.684-15.915
		c1.65-5.14,6.872-9.181,12.121-9.813c2.255-0.301,4.618-0.125,6.597,0.562c0,0,2.379,0.837,3.133,1.28l-3.792,6.404
		c-1.896-1.346-4.783-1.346-6.926-0.521c-2.805,1.126-4.674,4.041-4.674,7.035c0,2.889,1.623,5.526,4.205,6.929
		c2.283,1.155,5.58,1.044,7.67-0.386c1.099-0.687,1.952-1.842,2.638-2.913l10.61-18.994L-5.622,80.142z"/>
	<polygon clip-path="url(#SVGID_2_)" fill="#EF4135" points="-57.6,80.142 -64.973,80.142 -64.973,51.104 -57.606,51.104 
		-57.6,80.146 	"/>
	<path clip-path="url(#SVGID_2_)" fill="#EF4135" d="M28.715,62.889l-1.114,6.964c-0.126,0.787,0.017,1.461,1.093,1.519
		c1.04,0.056,1.574-0.449,1.742-1.519l1.242-6.964h6.295l-1.22,7.623c-0.941,4.753-4.23,6.402-8.713,6.37
		c-3.951-0.027-7.407-2.1-6.723-6.37l1.219-7.623H28.715z"/>
	<path clip-path="url(#SVGID_2_)" fill="#EF4135" d="M45.569,62.91h-5.205l-2.987,18.829h5.205l1.057-6.644
		c0.837,1.182,2.352,1.734,3.902,1.734c3.991,0,7.264-3.257,7.88-7.144c0.611-3.862-1.64-7.222-5.658-7.222
		c-1.576,0-3.304,0.629-4.383,1.969h-0.052L45.569,62.91z M47.798,66.673c1.886,0,2.768,1.365,2.513,2.985
		c-0.262,1.673-1.559,2.962-3.446,2.962c-1.884,0-2.779-1.289-2.515-2.962C44.603,68.039,45.913,66.673,47.798,66.673"/>
	<path clip-path="url(#SVGID_2_)" fill="#EF4135" d="M61.825,68.005c0.558-1.598,1.953-2.443,3.478-2.443
		c1.41,0,2.56,0.966,2.596,2.443H61.825z M71.753,69.948c0.727-4.595-1.521-7.483-6.195-7.483c-4.386,0-7.887,2.705-8.598,7.194
		c-0.736,4.649,2.199,7.17,6.664,7.17c3.073,0,6.287-1.384,7.553-4.563h-4.35c-0.667,0.894-1.669,1.177-2.692,1.177
		c-1.971,0-2.958-1.052-2.651-2.995h10.189L71.753,69.948z"/>
	<path clip-path="url(#SVGID_2_)" fill="#EF4135" d="M120.445,62.979h-3.254l-0.354,2.235h-0.058
		c-0.806-1.604-2.417-2.631-4.394-2.616c-4.109,0.028-6.688,3.332-7.27,6.997c-0.606,3.838,1.187,7.17,5.281,7.17
		c2.129,0,3.727-0.922,4.943-2.473h0.059l-0.332,2.092h3.254L120.445,62.979z M111.372,73.637c-2.203,0-3.131-1.863-2.808-3.862
		c0.319-1.975,1.893-3.816,4.047-3.816c2.249,0,3.24,1.748,2.908,3.816C115.181,71.865,113.643,73.637,111.372,73.637"/>
	<path clip-path="url(#SVGID_2_)" fill="#EF4135" d="M125.717,64.818h0.087c0.879-1.574,2.334-2.238,4.052-2.238
		c0.744,0,1.448,0.257,2.015,0.658l-1.253,2.971c-0.416-0.26-1.197-0.469-1.979-0.469c-2.511,0-3.333,1.88-3.678,4.057l-1.044,6.587
		h-2.935l2.123-13.403h2.935L125.717,64.818z"/>
	<polygon clip-path="url(#SVGID_2_)" fill="#EF4135" points="135.089,67.857 140.927,62.846 144.415,62.846 138.201,68.073 
		143.577,76.387 140.452,76.387 136.147,69.77 134.569,71.121 133.799,76.387 131.261,76.387 134.839,53.708 137.313,53.708 	"/>
	<path clip-path="url(#SVGID_2_)" fill="#EF4135" d="M156.647,70.178l0.131-0.533c0.634-3.961-0.881-7.097-5.169-7.097
		c-4.349,0-7.058,3.078-7.714,7.182c-0.628,3.934,1.384,6.962,5.5,7.012c2.965,0.035,5.194-1.34,6.83-3.648l-1.834-1.129
		c-1.232,1.596-2.574,2.617-4.561,2.66c-2.833,0.059-4.166-1.656-3.59-4.446H156.647z M146.76,68.106
		c0.623-1.909,2.272-3.517,4.6-3.517c2.779-0.002,3.396,1.33,3.363,3.517H146.76z"/>
	<polygon clip-path="url(#SVGID_2_)" fill="#EF4135" points="160.253,76.386 158.274,76.386 160.08,64.796 158.596,64.796 
		158.92,62.845 160.401,62.845 161.255,57.667 163.208,57.667 162.388,62.845 164.934,62.845 164.579,64.796 162.033,64.796 	"/>
	<path clip-path="url(#SVGID_2_)" fill="#EF4135" d="M4.02,68.421l0.35,0.327c1.228,1.127,2.739,1.75,4.539,1.75
		c1.338,0,2.241-0.266,2.241-1.039c0-0.735-0.399-1.034-1.554-1.245l-1.527-0.296c-2.699-0.512-5.057-2.729-5.057-5.753
		c0-5.281,3.894-8.449,10.616-8.449c2.286,0,4.786,0.67,6.857,1.957l-3.114,5.883c-1.102-1.014-2.865-1.655-4.23-1.655
		c-1.17,0-1.678,0.44-1.678,1.073c0,0.58,0.327,0.845,1.285,1.015l1.585,0.224c3.208,0.586,5.175,2.926,5.175,6.113
		c0,5.792-4.351,8.549-10.273,8.549c-3.183,0-6.109-0.906-8.387-2.484L4.02,68.421z"/>
	<path clip-path="url(#SVGID_2_)" fill="#EF4135" d="M78.274,64.667h0.054c0.755-1.346,2.212-2.032,3.622-2.032
		c0.542,0,1.063,0.136,1.521,0.325l-1.49,3.535c-0.292-0.153-0.63-0.217-1.074-0.217c-2.521,0-3.188,2.145-3.548,4.111l-0.949,5.993
		h-3.965l2.107-13.313h3.967L78.274,64.667z"/>
	<path clip-path="url(#SVGID_2_)" fill="#EF4135" d="M88.642,64.38h0.066c0.743-1.197,2.397-1.871,3.629-1.871
		c1.669,0,2.874,0.685,3.524,2.107c1.027-1.313,2.687-2.066,4.246-2.107c3.118-0.078,3.857,2.476,3.462,5.502l-1.326,8.373h-3.813
		l1.118-7.061c0.209-1.313,0.565-3.528-1.26-3.6c-2.105-0.082-2.437,2.496-2.689,4.064l-1.078,6.596H90.69l1.079-6.814
		c0.208-1.314,0.832-3.797-1.162-3.846c-2.093-0.051-2.533,2.453-2.817,4.068l-1.051,6.592h-3.737l2.149-13.437h3.736L88.642,64.38z
		"/>
</g>
<g>
	<defs>
		<rect id="SVGID_3_" x="28.66" width="100.94" height="54"/>
	</defs>
	<clipPath id="SVGID_4_">
		<use xlink:href="#SVGID_3_"  overflow="visible"/>
	</clipPath>
	<path clip-path="url(#SVGID_4_)" fill="#EF4135" d="M127.578,47.192h-12.204l-2.938-4.927H99.96l4.535-7.755h3.642l-5.146-9.363
		c-4.881,7.892-8.44,19.035-18.854,21.761c-7.851,2.441-16.677,0.773-22.45-4.961c-6.062-6.102-8.461-15.253-5.452-23.55
		c2.441-7.606,10.169-13.585,17.936-14.52c3.337-0.447,6.833-0.186,9.761,0.831c0,0,3.521,1.239,4.636,1.893l-5.61,9.477
		c-2.806-1.992-7.077-1.992-10.248-0.772c-4.151,1.666-6.916,5.978-6.916,10.411c0,4.273,2.401,8.177,6.223,10.251
		c3.378,1.709,8.256,1.544,11.348-0.569c1.628-1.017,2.889-2.727,3.904-4.313l15.7-28.105L127.578,47.192z"/>
	<polygon clip-path="url(#SVGID_4_)" fill="#EF4135" points="50.664,47.193 39.753,47.192 39.753,4.223 50.653,4.223 50.664,47.199 
			"/>
	<path clip-path="url(#SVGID_4_)" fill="#EF4135" d="M178.386,21.663l-1.648,10.304c-0.187,1.165,0.025,2.162,1.617,2.247
		c1.539,0.082,2.33-0.665,2.577-2.247l1.839-10.304h9.313l-1.805,11.279c-1.393,7.034-6.259,9.474-12.892,9.427
		c-5.848-0.042-10.962-3.108-9.949-9.427l1.803-11.279H178.386z"/>
	<path clip-path="url(#SVGID_4_)" fill="#EF4135" d="M203.325,21.694h-7.703l-4.418,27.862h7.702l1.562-9.831
		c1.24,1.749,3.482,2.565,5.774,2.565c5.906,0,10.75-4.818,11.661-10.57c0.904-5.714-2.427-10.687-8.373-10.687
		c-2.331,0-4.889,0.933-6.485,2.915h-0.075L203.325,21.694z M206.623,27.262c2.791,0,4.095,2.02,3.719,4.419
		c-0.388,2.474-2.308,4.381-5.099,4.381c-2.788,0-4.113-1.907-3.723-4.381C201.895,29.282,203.833,27.262,206.623,27.262"/>
	<path clip-path="url(#SVGID_4_)" fill="#EF4135" d="M227.379,29.233c0.826-2.364,2.89-3.615,5.146-3.615
		c2.087,0,3.787,1.429,3.842,3.615H227.379z M242.07,32.108c1.075-6.8-2.25-11.075-9.167-11.075
		c-6.489,0-11.671,4.003-12.724,10.648c-1.089,6.879,3.255,10.61,9.861,10.61c4.547,0,9.304-2.049,11.176-6.753h-6.437
		c-0.986,1.321-2.47,1.741-3.982,1.741c-2.917,0-4.378-1.556-3.923-4.432h15.076L242.07,32.108z"/>
	<path clip-path="url(#SVGID_4_)" fill="#EF4135" d="M314.121,21.797h-4.815l-0.522,3.307h-0.086
		c-1.192-2.374-3.576-3.892-6.502-3.871c-6.08,0.042-9.896,4.93-10.755,10.353c-0.898,5.68,1.755,10.609,7.814,10.609
		c3.15,0,5.513-1.364,7.314-3.658h0.087l-0.491,3.094h4.814L314.121,21.797z M300.694,37.567c-3.26,0-4.632-2.757-4.153-5.714
		c0.471-2.924,2.799-5.649,5.988-5.649c3.327,0,4.795,2.588,4.303,5.649C306.331,34.944,304.055,37.567,300.694,37.567"/>
	<path clip-path="url(#SVGID_4_)" fill="#EF4135" d="M321.922,24.518h0.129c1.301-2.33,3.453-3.313,5.995-3.313
		c1.101,0,2.143,0.38,2.979,0.975l-1.853,4.395c-0.617-0.385-1.772-0.693-2.928-0.693c-3.716,0-4.933,2.781-5.442,6.002
		l-1.544,9.748h-4.341l3.14-19.835h4.341L321.922,24.518z"/>
	<polygon clip-path="url(#SVGID_4_)" fill="#EF4135" points="335.791,29.014 344.428,21.599 349.589,21.599 340.394,29.334 
		348.348,41.636 343.724,41.636 337.354,31.845 335.02,33.843 333.881,41.636 330.125,41.636 335.42,8.078 339.081,8.078 	"/>
	<path clip-path="url(#SVGID_4_)" fill="#EF4135" d="M367.69,32.447l0.192-0.788c0.938-5.861-1.302-10.501-7.649-10.501
		c-6.433,0-10.442,4.554-11.413,10.628c-0.929,5.819,2.047,10.301,8.14,10.374c4.385,0.052,7.686-1.982,10.105-5.398l-2.714-1.671
		c-1.824,2.361-3.81,3.874-6.748,3.936c-4.192,0.088-6.164-2.45-5.313-6.58H367.69z M353.06,29.382
		c0.921-2.825,3.362-5.204,6.805-5.204c4.114-0.002,5.027,1.97,4.979,5.204H353.06z"/>
	<polygon clip-path="url(#SVGID_4_)" fill="#EF4135" points="373.026,41.636 370.097,41.636 372.768,24.486 370.574,24.486 
		371.053,21.599 373.246,21.599 374.507,13.935 377.399,13.935 376.185,21.599 379.952,21.599 379.424,24.486 375.658,24.486 	"/>
	<path clip-path="url(#SVGID_4_)" fill="#EF4135" d="M141.843,29.85l0.517,0.484c1.818,1.667,4.056,2.589,6.719,2.589
		c1.979,0,3.314-0.394,3.314-1.537c0-1.088-0.59-1.53-2.3-1.843l-2.259-0.437c-3.994-0.757-7.483-4.039-7.483-8.514
		c0-7.814,5.762-12.501,15.71-12.501c3.381,0,7.081,0.991,10.146,2.895l-4.609,8.704c-1.63-1.498-4.238-2.449-6.258-2.449
		c-1.731,0-2.484,0.652-2.484,1.588c0,0.858,0.484,1.25,1.902,1.503l2.346,0.331c4.747,0.866,7.657,4.329,7.657,9.046
		c0,8.57-6.438,12.649-15.201,12.649c-4.71,0-9.04-1.342-12.411-3.678L141.843,29.85z"/>
	<path clip-path="url(#SVGID_4_)" fill="#EF4135" d="M251.719,24.294h0.079c1.117-1.99,3.272-3.007,5.359-3.007
		c0.804,0,1.572,0.202,2.25,0.482L257.203,27c-0.432-0.227-0.933-0.32-1.589-0.32c-3.73,0-4.717,3.173-5.251,6.084l-1.403,8.868
		h-5.867l3.119-19.702h5.868L251.719,24.294z"/>
	<path clip-path="url(#SVGID_4_)" fill="#EF4135" d="M267.062,23.87h0.098c1.099-1.773,3.546-2.768,5.37-2.768
		c2.469,0,4.252,1.012,5.214,3.118c1.521-1.944,3.976-3.059,6.282-3.118c4.616-0.118,5.709,3.662,5.124,8.14l-1.963,12.389h-5.64
		l1.653-10.446c0.309-1.943,0.836-5.221-1.864-5.326c-3.115-0.122-3.604,3.692-3.979,6.013l-1.596,9.759h-5.672l1.6-10.083
		c0.307-1.944,1.229-5.616-1.723-5.689c-3.096-0.078-3.748,3.63-4.169,6.019l-1.554,9.753h-5.53l3.181-19.881h5.528L267.062,23.87z"
		/>
</g>
<text transform="matrix(1 0 0 1 57.9971 99.3472)"><tspan x="0" y="0" font-family="'ICAText-Black'" font-size="15.4342">R</tspan><tspan x="8.041" y="0" font-family="'ICAText-Black'" font-size="15.4342">o</tspan><tspan x="16.298" y="0" font-family="'ICAText-Black'" font-size="15.4342">t</tspan><tspan x="21.562" y="0" font-family="'ICAText-Black'" font-size="15.4342">tne</tspan></text>
</svg>
